<svg width="20" height="14" viewBox="0 0 20 14" fill="none" xmlns="http://www.w3.org/2000/svg">
<path d="M9.78 5.22043C9.63783 5.08795 9.44978 5.01582 9.25548 5.01925C9.06118 5.02268 8.87579 5.10139 8.73838 5.23881C8.60097 5.37622 8.52225 5.5616 8.51883 5.75591C8.5154 5.95021 8.58752 6.13825 8.72 6.28043L9.44 7.00043L8.72 7.72043C8.64631 7.78909 8.58721 7.87189 8.54622 7.96389C8.50523 8.05589 8.48319 8.1552 8.48141 8.25591C8.47963 8.35661 8.49816 8.45664 8.53588 8.55003C8.5736 8.64341 8.62974 8.72825 8.70096 8.79947C8.77218 8.87068 8.85701 8.92683 8.9504 8.96455C9.04379 9.00227 9.14382 9.0208 9.24452 9.01902C9.34523 9.01724 9.44454 8.9952 9.53654 8.95421C9.62854 8.91322 9.71134 8.85411 9.78 8.78043L10.5 8.06043L11.22 8.78043C11.3608 8.92099 11.5517 8.99986 11.7507 8.99967C11.9497 8.99948 12.1404 8.92026 12.281 8.77943C12.4216 8.6386 12.5004 8.4477 12.5002 8.24872C12.5001 8.04974 12.4208 7.85899 12.28 7.71843L11.561 7.00043L12.281 6.28043C12.3526 6.21121 12.4097 6.12842 12.449 6.0369C12.4882 5.94538 12.5089 5.84696 12.5097 5.74737C12.5105 5.64779 12.4915 5.54904 12.4537 5.45688C12.416 5.36473 12.3602 5.28102 12.2898 5.21063C12.2193 5.14025 12.1356 5.08459 12.0434 5.04693C11.9512 5.00926 11.8524 4.99033 11.7528 4.99124C11.6533 4.99215 11.5549 5.01289 11.4634 5.05224C11.3719 5.09159 11.2892 5.14876 11.22 5.22043L10.5 5.94043L9.78 5.22043Z" fill="#353535"/>
<path d="M3.22 5.22015C3.36062 5.0797 3.55125 5.00081 3.75 5.00081C3.94875 5.00081 4.13937 5.0797 4.28 5.22015L5 5.94015L5.72 5.22015C5.78866 5.14647 5.87146 5.08736 5.96346 5.04637C6.05546 5.00538 6.15477 4.98334 6.25547 4.98156C6.35618 4.97979 6.45621 4.99831 6.54959 5.03603C6.64298 5.07375 6.72782 5.1299 6.79903 5.20112C6.87025 5.27234 6.9264 5.35717 6.96412 5.45056C7.00184 5.54394 7.02036 5.64397 7.01859 5.74468C7.01681 5.84538 6.99477 5.94469 6.95378 6.03669C6.91279 6.12869 6.85368 6.21149 6.78 6.28015L6.061 7.00015L6.781 7.71815C6.85073 7.78782 6.90606 7.87054 6.94382 7.96159C6.98158 8.05264 7.00104 8.15023 7.00109 8.2488C7.00114 8.34737 6.98177 8.44498 6.94409 8.53607C6.90641 8.62715 6.85116 8.70992 6.7815 8.77965C6.71183 8.84939 6.62911 8.90471 6.53806 8.94248C6.44701 8.98024 6.34942 8.9997 6.25085 8.99975C6.15228 8.99979 6.05467 8.98042 5.96358 8.94275C5.8725 8.90507 5.78973 8.84982 5.72 8.78015L5 8.06015L4.28 8.78015C4.13782 8.91263 3.94977 8.98476 3.75547 8.98133C3.56117 8.9779 3.37579 8.89919 3.23837 8.76178C3.10096 8.62436 3.02225 8.43898 3.01882 8.24468C3.01539 8.05038 3.08752 7.86233 3.22 7.72015L3.94 7.00015L3.22 6.28015C3.07955 6.13953 3.00066 5.9489 3.00066 5.75015C3.00066 5.5514 3.07955 5.36078 3.22 5.22015Z" fill="#353535"/>
<path d="M14.5 8.5C14.3011 8.5 14.1103 8.57902 13.9697 8.71967C13.829 8.86032 13.75 9.05109 13.75 9.25C13.75 9.44891 13.829 9.63968 13.9697 9.78033C14.1103 9.92098 14.3011 10 14.5 10H16.25C16.4489 10 16.6397 9.92098 16.7803 9.78033C16.921 9.63968 17 9.44891 17 9.25C17 9.05109 16.921 8.86032 16.7803 8.71967C16.6397 8.57902 16.4489 8.5 16.25 8.5H14.5Z" fill="#353535"/>
<path d="M3.25 0C2.38805 0 1.5614 0.34241 0.951903 0.951903C0.34241 1.5614 0 2.38805 0 3.25V10.75C0 11.612 0.34241 12.4386 0.951903 13.0481C1.5614 13.6576 2.38805 14 3.25 14H16.75C17.1768 14 17.5994 13.9159 17.9937 13.7526C18.388 13.5893 18.7463 13.3499 19.0481 13.0481C19.3499 12.7463 19.5893 12.388 19.7526 11.9937C19.9159 11.5994 20 11.1768 20 10.75V3.25C20 2.8232 19.9159 2.40059 19.7526 2.00628C19.5893 1.61197 19.3499 1.25369 19.0481 0.951903C18.7463 0.650112 18.388 0.410719 17.9937 0.247392C17.5994 0.0840639 17.1768 0 16.75 0H3.25ZM1.5 3.25C1.5 2.283 2.283 1.5 3.25 1.5H16.75C17.717 1.5 18.5 2.283 18.5 3.25V10.75C18.5 11.2141 18.3156 11.6592 17.9874 11.9874C17.6592 12.3156 17.2141 12.5 16.75 12.5H3.25C2.78587 12.5 2.34075 12.3156 2.01256 11.9874C1.68437 11.6592 1.5 11.2141 1.5 10.75V3.25Z" fill="#353535"/>
</svg>
