<svg width="801" height="408" viewBox="0 0 801 408" fill="none" xmlns="http://www.w3.org/2000/svg">
<path d="M31.4411 6.2876V14.2635H20.6712V47.1568H10.7699V14.2635H0V6.2876H31.4411Z" fill="black"/>
<path d="M71.6151 6.2876V47.1568H61.7138V30.3317H46.3117V47.1568H36.4103V6.2876H46.3117V22.2976H61.7138V6.2876H71.6151Z" fill="black"/>
<path d="M104.066 39.9377H88.8959L86.464 47.1568H76.0994L90.8067 6.2876H102.271L116.979 47.1568H106.498L104.066 39.9377ZM101.519 32.2529L96.4811 17.2908L91.5015 32.2529H101.519Z" fill="black"/>
<path d="M150.696 6.2876V14.2635H139.926V47.1568H130.024V14.2635H119.254V6.2876H150.696Z" fill="black"/>
<path d="M706.219 341.185H689.279L686.564 348.96H674.991L691.413 304.947H704.214L720.637 348.96H708.934L706.219 341.185ZM703.374 332.909L697.749 316.796L692.189 332.909H703.374Z" fill="black"/>
<path d="M760.225 319.116C760.225 321.666 759.621 324.007 758.414 326.138C757.208 328.228 755.354 329.921 752.854 331.217C750.354 332.512 747.251 333.16 743.544 333.16H736.691V348.96H725.635V304.947H743.544C747.165 304.947 750.225 305.553 752.725 306.765C755.225 307.977 757.1 309.649 758.35 311.781C759.6 313.912 760.225 316.358 760.225 319.116ZM742.703 324.633C744.815 324.633 746.389 324.153 747.423 323.191C748.458 322.23 748.975 320.872 748.975 319.116C748.975 317.361 748.458 316.002 747.423 315.041C746.389 314.08 744.815 313.599 742.703 313.599H736.691V324.633H742.703Z" fill="black"/>
<path d="M800.57 319.116C800.57 321.666 799.967 324.007 798.76 326.138C797.553 328.228 795.7 329.921 793.2 331.217C790.7 332.512 787.597 333.16 783.89 333.16H777.036V348.96H765.98V304.947H783.89C787.51 304.947 790.571 305.553 793.071 306.765C795.571 307.977 797.446 309.649 798.696 311.781C799.946 313.912 800.57 316.358 800.57 319.116ZM783.049 324.633C785.161 324.633 786.734 324.153 787.769 323.191C788.803 322.23 789.321 320.872 789.321 319.116C789.321 317.361 788.803 316.002 787.769 315.041C786.734 314.08 785.161 313.599 783.049 313.599H777.036V324.633H783.049Z" fill="black"/>
<path d="M248.831 113.943C248.831 112.716 249.761 109.649 251.62 104.742C258.438 84.192 265.565 68.2431 273.002 56.8948C243.254 59.0418 215.674 65.4827 190.264 76.2176C165.164 86.6457 151.375 100.448 148.895 117.623C147.656 125.905 151.994 134.186 161.91 142.467C172.136 150.441 185.616 157.496 202.35 163.63C224.971 171.911 242.479 179.579 254.874 186.633C267.269 193.688 276.256 201.509 281.833 210.097C287.721 218.685 290.665 229.266 290.665 241.841C290.665 248.282 290.355 253.343 289.735 257.023C287.256 276.653 277.03 294.749 259.057 311.311C241.084 327.873 219.238 340.909 193.518 350.417C168.108 359.925 143.628 364.679 120.077 364.679C101.794 364.679 87.2296 360.691 76.3838 352.717C65.2282 345.049 59.6504 334.774 59.6504 321.893C59.6504 319.132 59.8053 316.985 60.1152 315.452C61.9745 303.183 67.5523 291.528 76.8487 280.487C85.8351 269.445 96.2161 260.704 107.991 254.263C120.077 247.515 130.613 244.142 139.599 244.142C143.628 244.142 146.881 244.755 149.36 245.982C152.769 247.515 156.023 250.429 159.121 254.723C162.53 259.017 162.375 261.164 158.657 261.164C154.008 261.164 146.107 263.311 134.951 267.605C123.795 271.899 113.259 278.493 103.343 287.388C93.7371 295.976 88.1592 306.557 86.6098 319.132C85.6802 326.187 87.0747 331.707 90.7932 335.695C94.8216 339.989 100.709 342.289 108.456 342.596C131.077 343.209 154.008 339.835 177.249 332.474C200.49 325.42 220.477 314.072 237.211 298.429C253.944 283.094 264.015 264.078 267.424 241.381C267.734 240.154 267.889 238.467 267.889 236.32C267.889 227.733 264.635 220.371 258.128 214.237C251.62 208.103 243.873 203.042 234.887 199.055C225.9 195.068 213.97 190.467 199.096 185.253L189.335 181.573C162.375 172.065 144.092 162.71 134.486 153.509C124.88 144.001 120.077 134.339 120.077 124.524C120.077 106.122 128.443 90.1729 145.177 76.6776C161.91 62.8757 182.053 52.6009 205.603 45.8532C226.365 40.0257 248.367 37.112 271.607 37.112C277.495 37.112 283.383 38.1855 289.271 40.3325C293.609 42.1727 297.172 44.9331 299.961 48.6136C303.06 52.2942 304.61 56.128 304.61 60.1153C304.61 63.4891 303.37 67.4763 300.891 72.077C298.722 76.3709 297.327 79.1313 296.708 80.3582C296.088 81.8917 293.454 86.6457 288.806 94.6202C284.467 102.595 281.369 109.802 279.509 116.243C277.65 122.071 274.551 124.985 270.213 124.985C268.664 124.985 266.494 124.524 263.706 123.604C262.466 123.298 260.452 122.838 257.663 122.224C254.874 121.611 252.705 120.691 251.155 119.464C249.606 117.93 248.831 116.09 248.831 113.943Z" fill="black"/>
<path d="M515.898 318.212C503.813 318.212 494.517 312.078 488.009 299.809C484.601 293.369 482.896 281.714 482.896 264.844C482.896 253.803 483.671 240.614 485.221 225.279C485.53 223.439 485.685 220.832 485.685 217.458C485.685 211.63 484.601 208.716 482.432 208.716C481.192 208.716 477.938 211.937 472.67 218.378C467.402 224.512 464.149 228.346 462.909 229.879C458.571 235.094 450.514 243.528 438.739 255.183C433.161 260.704 430.372 263.464 430.372 263.464C427.583 266.838 424.329 268.525 420.611 268.525C418.132 268.525 415.653 267.912 413.174 266.685C407.906 264.231 404.342 262.391 402.483 261.164C400.934 259.63 400.159 257.637 400.159 255.183C400.159 252.423 400.779 249.202 402.018 245.522C402.638 243.681 403.258 241.688 403.877 239.541C404.807 237.394 405.582 235.094 406.201 232.64C414.258 209.023 417.512 197.215 415.963 197.215C413.793 197.215 408.99 201.049 401.553 208.716C394.116 216.384 386.679 224.512 379.242 233.1C366.847 247.822 354.607 264.384 342.521 282.787C339.732 286.774 336.634 288.768 333.225 288.768C330.436 288.768 327.492 288.001 324.393 286.468C318.816 284.014 315.097 282.174 313.238 280.947C311.688 279.413 310.914 277.266 310.914 274.506C310.914 274.199 311.533 270.672 312.773 263.924C315.562 249.202 319.125 234.94 323.464 221.138C327.802 207.03 330.281 198.748 330.901 196.295L335.084 182.493C335.394 180.652 336.789 179.272 339.268 178.352C342.056 177.432 345.155 176.972 348.564 176.972C351.663 176.972 353.987 177.432 355.536 178.352C358.635 179.579 360.184 181.726 360.184 184.793C360.184 186.02 359.875 187.553 359.255 189.394C356.156 202.582 352.747 214.544 349.029 225.279L346.24 235.86C351.818 228.499 360.494 218.838 372.27 206.876C384.355 194.608 395.046 184.946 404.342 177.892C406.821 176.052 409.3 175.132 411.779 175.132C414.568 175.132 418.132 176.205 422.47 178.352C433.006 183.566 438.274 191.081 438.274 200.895C438.274 203.042 438.119 204.729 437.809 205.956C436.26 214.237 434.4 222.365 432.231 230.34C431.921 230.646 435.795 226.352 443.852 217.458L455.472 205.036C458.571 201.355 461.98 197.982 465.698 194.915C469.727 191.541 472.515 189.24 474.065 188.014C477.474 184.64 481.502 182.953 486.15 182.953C488.009 182.953 489.869 183.413 491.728 184.333C497.926 187.707 502.419 190.621 505.208 193.074C507.997 195.528 509.391 199.208 509.391 204.116V252.423C509.391 270.825 510.166 283.554 511.715 290.608C513.265 297.663 515.434 302.11 518.223 303.95C519.462 304.87 521.631 305.79 524.73 306.71C527.829 307.937 529.378 309.318 529.378 310.851C529.378 312.385 528.139 313.918 525.66 315.452C523.491 317.292 520.237 318.212 515.898 318.212Z" fill="black"/>
<path d="M579.386 162.25C577.217 166.237 574.273 168.231 570.555 168.231C567.456 168.231 564.667 167.157 562.188 165.01C559.709 162.863 558.469 160.256 558.469 157.189C558.469 153.815 559.089 150.595 560.329 147.528C561.568 144.461 563.427 142.467 565.906 141.547C567.146 140.933 568.85 140.627 571.019 140.627C574.118 140.627 576.597 141.7 578.456 143.847C580.626 145.994 581.71 148.755 581.71 152.128C581.71 155.809 580.936 159.183 579.386 162.25ZM564.047 279.107C561.878 280.947 558.624 281.867 554.286 281.867C548.088 281.867 541.891 280.333 535.693 277.266C529.496 273.892 526.242 270.059 525.932 265.765C525.622 261.164 527.017 251.963 530.115 238.161C533.524 224.359 536.933 212.704 540.341 203.196C540.651 201.969 541.426 199.362 542.665 195.375C544.215 191.387 546.384 186.787 549.173 181.573C551.032 179.732 552.427 178.659 553.356 178.352C554.596 177.739 555.99 177.585 557.54 177.892C564.047 179.119 568.54 180.499 571.019 182.033C573.498 183.259 574.273 185.253 573.344 188.014C570.555 195.375 568.385 201.969 566.836 207.796L562.188 222.518C561.878 223.745 560.174 228.653 557.075 237.241C554.286 245.522 552.891 251.963 552.891 256.563C552.891 258.71 553.511 259.784 554.751 259.784C559.089 259.784 566.526 254.11 577.062 242.761C584.189 235.094 595.345 222.365 610.529 204.576C611.459 203.656 612.698 203.196 614.247 203.196C617.346 203.196 620.755 204.883 624.473 208.256C628.502 211.324 629.896 213.47 628.657 214.697L606.81 237.701C599.683 245.368 585.429 259.17 564.047 279.107Z" fill="black"/>
<path d="M632.837 298.429C624.78 297.202 618.582 295.362 614.244 292.908C610.215 290.148 607.581 286.161 606.342 280.947C604.793 274.813 603.863 268.985 603.553 263.464C603.243 257.943 603.088 252.729 603.088 247.822C603.088 225.432 605.102 204.729 609.131 185.713C610.99 176.512 614.244 163.63 618.892 147.068C623.85 130.505 628.653 115.323 633.301 101.521C636.4 92.3199 641.358 80.2048 648.176 65.176C654.993 49.8405 662.43 35.8852 670.487 23.31C674.205 17.1758 677.614 12.8819 680.713 10.4282C684.122 7.6678 687.685 6.2876 691.404 6.2876C692.333 6.2876 694.347 6.5943 697.446 7.20772C703.644 8.74127 708.137 10.8882 710.926 13.6486C713.715 16.409 715.109 20.2429 715.109 25.1503C715.109 31.2845 710.926 45.8532 702.559 68.8565C694.193 91.5531 683.037 117.01 669.092 145.227C655.148 173.138 640.119 198.748 624.005 222.058C623.385 233.713 623.075 242.148 623.075 247.362C623.075 273.126 626.794 286.007 634.231 286.007C637.33 286.007 641.978 280.947 648.176 270.825C654.683 260.397 662.585 246.442 671.881 228.959L684.431 206.416C685.361 204.883 687.22 204.116 690.009 204.116C693.418 204.116 696.517 205.036 699.306 206.876C702.404 208.716 703.334 210.71 702.094 212.857C694.967 226.966 686.91 242.608 677.924 259.784C669.247 276.653 663.515 287.234 660.726 291.528C657.627 297.049 652.204 299.809 644.457 299.809C641.048 299.809 637.175 299.349 632.837 298.429ZM635.161 173.751C639.809 167.924 653.289 140.933 675.6 92.7799C677.769 87.8726 679.163 84.8055 679.783 83.5786C682.572 77.1377 685.826 68.2431 689.544 56.8948C693.573 45.2398 695.587 36.6519 695.587 31.1311C695.587 28.3707 694.967 26.8372 693.728 26.5305C691.249 25.9171 685.051 37.7254 675.135 61.9555C665.219 86.1857 655.613 111.489 646.316 137.866C637.02 164.243 633.301 176.205 635.161 173.751Z" fill="black"/>
<path d="M795.458 200.895C798.866 203.349 800.571 205.649 800.571 207.796C800.571 209.33 799.796 211.17 798.247 213.317C796.697 215.157 794.993 217.151 793.133 219.298C773.301 240.154 756.413 255.643 742.468 265.765C728.834 275.579 715.509 281.56 702.494 283.707C697.226 284.627 691.028 283.4 683.901 280.027C677.084 276.346 672.436 272.512 669.957 268.525C668.407 265.458 667.633 261.164 667.633 255.643C667.633 249.816 668.407 244.602 669.957 240.001C673.055 228.653 676.929 218.071 681.577 208.256C686.535 198.135 693.043 187.707 701.099 176.972C705.438 171.144 709.621 166.544 713.65 163.17C717.988 159.489 723.101 155.809 728.989 152.128C730.228 151.208 731.932 150.748 734.102 150.748C737.82 150.748 742.468 151.975 748.046 154.429C753.624 156.882 757.188 159.029 758.737 160.87C761.836 164.243 763.385 168.691 763.385 174.212C763.385 181.879 760.441 190.007 754.554 198.595C748.976 206.876 741.384 213.624 731.778 218.838C722.481 224.052 712.875 226.199 702.959 225.279C695.522 240.001 691.803 250.889 691.803 257.943C691.803 262.237 693.198 265.305 695.986 267.145C700.325 269.598 709.001 266.378 722.016 257.483C735.031 248.589 748.201 238.161 761.526 226.199C766.794 221.292 771.132 217.151 774.541 213.777C778.259 210.097 781.978 205.956 785.696 201.355C786.936 199.208 788.33 198.135 789.88 198.135C791.119 198.135 792.979 199.055 795.458 200.895ZM741.539 166.39C736.581 166.39 726.355 179.732 710.861 206.416C717.058 206.109 722.791 203.962 728.059 199.975C733.327 195.681 737.51 190.774 740.609 185.253C743.708 179.426 745.257 174.672 745.257 170.991C745.257 167.924 744.018 166.39 741.539 166.39Z" fill="black"/>
</svg>
